<?xml version="1.0" encoding="iso-8859-1"?>
<!-- Uploaded to: SVG Repo, www.svgrepo.com, Generator: SVG Repo Mixer Tools -->
<svg fill="#000000" height="800px" width="800px" version="1.1" id="Layer_1" xmlns="http://www.w3.org/2000/svg" xmlns:xlink="http://www.w3.org/1999/xlink" 
	 viewBox="0 0 512.001 512.001" xml:space="preserve">
<g>
	<g>
		<path d="M505.808,479.824l-32.604-118.918l13.728-89.503l-9.056-108.433c-3.296-40.102-36.011-70.71-75.187-72.415
			c-11.599,9.258-26.411,14.156-42.191,12.898c-4.897,6.137-7.561,14.077-6.867,22.519l6.985,84.977l23.275-23.858l17.726-45.979
			l-6.539,60.538l-50.736,52.007c-8.177,8.382-8.011,21.806,0.371,29.983c8.38,8.174,21.802,8.013,29.983-0.372l55.853-57.253
			c3.314-3.398,5.393-7.81,5.903-12.528l7.326-67.823l10.742,69.775c1.812,11.764-5.597,17.768-10.962,23.267
			c-11.638,11.929-44.202,45.31-55.853,57.253c-7.671,7.863-17.828,11.827-28.009,11.873l-15.799,43.076
			c-0.838,2.284-1.342,4.678-1.501,7.107l-8.264,126.882c-0.954,14.631,10.64,27.098,25.414,27.098
			c13.297,0,24.488-10.33,25.364-23.789l8.027-123.221l29.45-80.295l11.171-0.918l-11.47,74.777
			c-0.542,3.532-0.334,7.139,0.611,10.585l34.037,124.146c3.714,13.544,17.701,21.524,31.265,17.809
			C501.55,507.374,509.523,493.376,505.808,479.824z"/>
	</g>
</g>
<g>
	<g>
		<circle cx="365.306" cy="43.628" r="43.628"/>
	</g>
</g>
<g>
	<g>
		<polygon points="113.437,143.135 102.049,154.34 105.784,155.913 116.334,147.875 		"/>
	</g>
</g>
<g>
	<g>
		<path d="M274.587,82.702c-3.176-10.021-13.873-15.574-23.895-12.394L174.45,94.468l5.001,8.187
			c13.39-3.939,28.405,0.485,37.368,12.248c1.233,1.619,2.292,3.314,3.199,5.06l42.173-13.365
			C272.213,103.422,277.762,92.724,274.587,82.702z"/>
	</g>
</g>
<g>
	<g>
		<path d="M124.317,34.011C119.635,13.319,99.068,0.34,78.376,5.022C66.133,7.79,56.593,16.123,51.81,26.752
			c20.302-7.868,43.881-0.602,55.78,18.873c4.526,7.408,6.695,15.602,6.726,23.708C123.103,60.326,127.299,47.197,124.317,34.011z"
			/>
	</g>
</g>
<g>
	<g>
		<path d="M96.872,52.173c-9.614-15.738-30.163-20.694-45.895-11.082c-17.231,10.528-21.34,33.951-8.335,49.742
			c3.378-0.694,6.936-0.796,10.541-0.193l34.945,5.85C101.99,86.343,105.99,67.097,96.872,52.173z"/>
	</g>
</g>
<g>
	<g>
		<path d="M174.217,209.071l13.604-28.494l-46.676,35.561l12.514,41.654c2.673,8.899,12.054,13.972,20.99,11.292
			c8.915-2.678,13.97-12.075,11.292-20.99L174.217,209.071z"/>
	</g>
</g>
<g>
	<g>
		<path d="M204.092,124.599c-6.25-8.199-17.96-9.783-26.163-3.536l-66.032,50.309l-20.911-16.036
			c-6.156-1.032-39.981-6.694-47.307-7.921c-6.289-1.052-11.755-4.074-15.881-8.325c-2.018,7.14,0.346,15.101,6.592,19.892
			l1.99,1.526L5.483,329.365c-1.278,6.981,3.691,13.458,10.21,13.458c6.438,0,14.946,0,24.679,0v144.856
			c0,13.432,10.89,24.321,24.321,24.321c3.284,0,6.411-0.659,9.27-1.84c-4.505-6.358-7.165-14.113-7.165-22.481V342.824
			c4.814,0,9.725,0,14.666,0v144.856c0,13.431,10.889,24.321,24.321,24.321s24.321-10.89,24.321-24.321V342.824
			c4.482,0,27.043,0,30.403,0c6.56,0,11.484-6.493,10.21-13.458l-8.928-48.797c-9.055-2.635-16.639-9.639-19.555-19.344
			l-11.226-37.363l-4.208,3.206c-11.274,8.59-27.355,6.469-36.039-4.689l-38.855-49.961l48.592,37.264
			c6.683,5.128,15.975,5.14,22.672,0.036l77.383-58.956C208.755,144.513,210.34,132.799,204.092,124.599z"/>
	</g>
</g>
<g>
	<g>
		<path d="M157.839,89.363c-7.834-12.823-24.581-16.863-37.4-9.031c-5.774,3.529-9.761,8.866-11.691,14.837l6.22-1.208
			l-26.22,14.729l-37.533-6.286c-9.177-1.529-17.868,4.658-19.406,13.84c-1.536,9.179,4.659,17.867,13.84,19.404l49.246,8.245
			l36.579-20.544l-9.958,10.924l4.025,6.588l42.693-32.527c0.273-0.208,0.553-0.402,0.831-0.6L157.839,89.363z"/>
	</g>
</g>
</svg>