<?xml version="1.0" encoding="utf-8"?>
<!-- Generator: Adobe Illustrator 16.0.0, SVG Export Plug-In . SVG Version: 6.00 Build 0)  -->
<!DOCTYPE svg PUBLIC "-//W3C//DTD SVG 1.1//EN" "http://www.w3.org/Graphics/SVG/1.1/DTD/svg11.dtd">
<svg version="1.1" id="Layer_1" xmlns="http://www.w3.org/2000/svg" xmlns:xlink="http://www.w3.org/1999/xlink" x="0px" y="0px"
	 width="128px" height="128px" viewBox="0 0 128 128" enable-background="new 0 0 128 128" xml:space="preserve">
<g>
	<g>
		<path fill="#282D33" d="M84.552,99.768H43.375l-0.125-1.866c-0.211-3.142-0.875-7.435-2.835-10.044
			C25.73,68.959,25.319,50.89,25.319,50.713c0-21.328,17.352-38.68,38.679-38.68c21.329,0,38.682,17.352,38.682,38.68
			c0,0.177-0.411,18.226-15.121,37.17c-1.952,2.591-2.64,6.887-2.87,10.031L84.552,99.768z M47.072,95.768h33.805
			c0.408-3.406,1.356-7.464,3.504-10.314c13.91-17.915,14.299-34.577,14.299-34.74c0-19.123-15.559-34.68-34.682-34.68
			c-19.122,0-34.679,15.557-34.679,34.68c0,0.164,0.388,16.846,14.274,34.716C45.751,88.302,46.683,92.36,47.072,95.768z"/>
	</g>
	<g>
		<g>
			<rect x="40.149" y="96.2" fill="#282D33" width="47.7" height="4"/>
		</g>
		<g>
			<rect x="40.149" y="105.466" fill="#282D33" width="47.7" height="4"/>
		</g>
		<g>
			<rect x="40.149" y="114.732" fill="#282D33" width="47.7" height="4"/>
		</g>
		<g>
			<rect x="46.638" y="124" fill="#282D33" width="34.726" height="4"/>
		</g>
		<g>
			<rect x="43.685" y="98.691" fill="#282D33" width="4" height="17.609"/>
		</g>
	</g>
	<g>
		<g>
			<rect x="62" fill="#282D33" width="4" height="7.273"/>
		</g>
		<g>
			
				<rect x="48.235" y="3.235" transform="matrix(0.2589 0.9659 -0.9659 0.2589 43.4987 -46.2233)" fill="#282D33" width="7.273" height="4"/>
		</g>
		<g>
			
				<rect x="36.933" y="7.916" transform="matrix(0.5 0.866 -0.866 0.5 28.8701 -30.1751)" fill="#282D33" width="7.271" height="4"/>
		</g>
		<g>
			
				<rect x="27.224" y="15.364" transform="matrix(0.7071 0.7071 -0.7071 0.7071 21.3157 -16.736)" fill="#282D33" width="7.275" height="4"/>
		</g>
		<g>
			
				<rect x="19.777" y="25.069" transform="matrix(0.866 0.5 -0.5 0.866 16.6721 -8.0803)" fill="#282D33" width="7.272" height="4"/>
		</g>
		<g>
			
				<rect x="15.093" y="36.372" transform="matrix(0.9659 0.2588 -0.2588 0.9659 10.5701 -3.5403)" fill="#282D33" width="7.274" height="4"/>
		</g>
		<g>
			<rect x="13.498" y="48.502" fill="#282D33" width="7.271" height="4"/>
		</g>
		<g>
			
				<rect x="16.728" y="58.997" transform="matrix(0.2588 0.9659 -0.9659 0.2588 74.3805 28.3334)" fill="#282D33" width="4" height="7.271"/>
		</g>
		<g>
			
				<rect x="21.412" y="70.299" transform="matrix(0.4997 0.8662 -0.8662 0.4997 75.7533 16.7086)" fill="#282D33" width="4" height="7.272"/>
		</g>
		<g>
			
				<rect x="100.95" y="71.939" transform="matrix(0.8659 0.5002 -0.5002 0.8659 51.0134 -42.4016)" fill="#282D33" width="7.27" height="3.999"/>
		</g>
		<g>
			
				<rect x="105.632" y="60.636" transform="matrix(0.9659 0.259 -0.259 0.9659 19.9507 -26.1626)" fill="#282D33" width="7.272" height="4"/>
		</g>
		<g>
			<rect x="107.23" y="48.506" fill="#282D33" width="7.272" height="4"/>
		</g>
		<g>
			
				<rect x="107.269" y="34.741" transform="matrix(0.2588 0.9659 -0.9659 0.2588 118.0644 -77.1013)" fill="#282D33" width="4.001" height="7.272"/>
		</g>
		<g>
			
				<rect x="102.587" y="23.435" transform="matrix(0.5 0.866 -0.866 0.5 75.7355 -77.0381)" fill="#282D33" width="4" height="7.273"/>
		</g>
		<g>
			
				<rect x="95.14" y="13.73" transform="matrix(0.7071 0.7071 -0.7071 0.7071 40.7316 -63.6019)" fill="#282D33" width="4" height="7.274"/>
		</g>
		<g>
			
				<rect x="85.434" y="6.282" transform="matrix(0.8661 0.4999 -0.4999 0.8661 16.6681 -42.3817)" fill="#282D33" width="4.001" height="7.272"/>
		</g>
		<g>
			
				<rect x="74.132" y="1.599" transform="matrix(0.966 0.2586 -0.2586 0.966 3.9433 -19.5088)" fill="#282D33" width="3.999" height="7.272"/>
		</g>
	</g>
	<g>
		<path fill="#282D33" d="M64.001,79.925c-15.744,0-28.554-12.807-28.554-28.548c0-15.746,12.81-28.555,28.554-28.555
			c15.743,0,28.551,12.81,28.551,28.555C92.552,67.118,79.744,79.925,64.001,79.925z M64.001,26.822
			c-13.539,0-24.554,11.016-24.554,24.555c0,13.536,11.015,24.548,24.554,24.548c13.537,0,24.551-11.012,24.551-24.548
			C88.552,37.837,77.538,26.822,64.001,26.822z"/>
	</g>
	<g>
		<g>
			<path fill="#282D33" d="M66.637,54.066l-7.775-3.021c-2.44-1.553-3.678-3.397-3.678-5.481v-3.312
				c0-3.787,3.078-6.868,6.862-6.868h3.908c3.784,0,6.862,3.081,6.862,6.868V43.8h-4v-1.548c0-1.582-1.284-2.868-2.862-2.868h-3.908
				c-1.578,0-2.862,1.287-2.862,2.868v3.312c0,0.572,0.604,1.296,1.664,2.002l7.219,2.765L66.637,54.066z"/>
		</g>
		<g>
			<path fill="#282D33" d="M65.954,66.507h-3.908c-3.784,0-6.862-3.08-6.862-6.865v-1.549h4v1.549c0,1.58,1.284,2.865,2.862,2.865
				h3.908c1.578,0,2.862-1.285,2.862-2.865v-3.314c0-0.575-0.666-1.363-1.749-2.083l-6.881-2.651l1.438-3.732l7.427,2.903
				c2.463,1.562,3.765,3.485,3.765,5.563v3.314C72.816,63.427,69.738,66.507,65.954,66.507z"/>
		</g>
		<g>
			<rect x="62.296" y="30.723" fill="#282D33" width="4" height="7.268"/>
		</g>
		<g>
			<rect x="62.296" y="63.332" fill="#282D33" width="4" height="7.268"/>
		</g>
	</g>
</g>
</svg>
