<?xml version="1.0" encoding="utf-8"?>
<!-- Generator: Adobe Illustrator 16.0.0, SVG Export Plug-In . SVG Version: 6.00 Build 0)  -->
<!DOCTYPE svg PUBLIC "-//W3C//DTD SVG 1.1//EN" "http://www.w3.org/Graphics/SVG/1.1/DTD/svg11.dtd">
<svg version="1.1" id="Layer_1" xmlns="http://www.w3.org/2000/svg" xmlns:xlink="http://www.w3.org/1999/xlink" x="0px" y="0px"
	 width="128px" height="128px" viewBox="0 0 128 128" enable-background="new 0 0 128 128" xml:space="preserve">
<g>
	<g>
		<g>
			<polygon fill="#282D33" points="91.106,86.866 58.297,86.866 58.297,63.798 49.388,63.798 49.388,86.866 36.896,86.866 
				36.896,54.501 40.894,54.501 40.894,82.868 45.39,82.868 45.39,59.8 62.295,59.8 62.295,82.868 87.108,82.868 87.108,54.501 
				91.106,54.501 			"/>
		</g>
		<g>
			<path fill="#282D33" d="M78.123,63.412v7.747h-7.428v-7.747H78.123 M82.06,59.476H66.759v15.62H82.06V59.476L82.06,59.476z"/>
		</g>
		<g>
			<polygon fill="#282D33" points="31.626,64.401 28.788,61.585 64,26.086 99.209,61.585 96.371,64.4 64,31.763 			"/>
		</g>
	</g>
	<g>
		<g>
			<g>
				<g>
					<path fill="#282D33" d="M33.652,24.781L33.652,24.781c-0.677,0-1.359-0.05-2.029-0.148l-1.433-0.212l-0.245-1.428
						c-0.754-4.396,0.632-8.919,3.708-12.1c2.619-2.712,6.138-4.206,9.908-4.206c0.675,0,1.355,0.05,2.023,0.148l1.435,0.211
						l0.245,1.429c0.754,4.398-0.632,8.923-3.708,12.103C40.94,23.288,37.423,24.781,33.652,24.781z M43.467,10.686
						c-2.64,0.025-5.101,1.083-6.938,2.986c-1.838,1.9-2.83,4.477-2.786,7.111c2.642-0.023,5.102-1.081,6.938-2.983
						C42.519,15.899,43.51,13.322,43.467,10.686z"/>
				</g>
				<g>
					<path fill="#282D33" d="M21.056,39.389l-1.254-0.747c-3.721-2.215-6.18-6.116-6.579-10.434
						c-0.397-4.318,1.305-8.607,4.553-11.475l1.094-0.966l1.253,0.748c3.719,2.221,6.177,6.121,6.576,10.433
						c0.397,4.315-1.303,8.604-4.551,11.475L21.056,39.389z M19.342,20.854c-1.584,1.941-2.371,4.457-2.138,6.987
						c0.233,2.526,1.466,4.851,3.375,6.463c1.585-1.942,2.372-4.459,2.138-6.987C22.485,24.793,21.252,22.469,19.342,20.854z"/>
				</g>
				<g>
					<path fill="#282D33" d="M15.506,60.631l-1.445-0.141c-4.308-0.422-8.177-2.912-10.352-6.662
						c-2.171-3.743-2.426-8.354-0.683-12.334l0.583-1.33l1.445,0.143c4.304,0.425,8.171,2.915,10.345,6.661
						c2.17,3.739,2.428,8.351,0.689,12.332L15.506,60.631z M6.182,44.563c-0.629,2.439-0.289,5.062,0.986,7.259
						c1.269,2.188,3.356,3.767,5.76,4.412c0.627-2.442,0.287-5.064-0.987-7.26C10.671,46.788,8.583,45.209,6.182,44.563z"/>
				</g>
				<g>
					<path fill="#282D33" d="M13.488,83.521L13.488,83.521c-2.745,0-5.392-0.833-7.655-2.411c-3.537-2.468-5.706-6.539-5.801-10.893
						L0,68.774l1.361-0.484c1.458-0.519,2.981-0.781,4.525-0.781c2.748,0,5.396,0.835,7.656,2.413
						c3.539,2.47,5.708,6.541,5.801,10.892l0.031,1.442l-1.359,0.483C16.556,83.259,15.033,83.521,13.488,83.521z M4.18,71.661
						c0.443,2.503,1.831,4.698,3.94,6.17c2.062,1.438,4.63,1.985,7.071,1.538c-0.452-2.482-1.859-4.719-3.937-6.169
						C9.195,71.763,6.624,71.216,4.18,71.661z"/>
				</g>
				<g>
					<path fill="#282D33" d="M21.477,105.124L21.477,105.124c-0.76,0-1.526-0.065-2.279-0.194c-4.25-0.731-7.925-3.501-9.833-7.408
						l-0.63-1.29l1.021-1.01c2.548-2.517,5.902-3.904,9.446-3.904c0.757,0,1.522,0.065,2.275,0.195
						c4.25,0.731,7.927,3.5,9.837,7.409l0.63,1.29l-1.021,1.009C28.375,103.738,25.02,105.124,21.477,105.124z M13.732,97.08
						c1.447,2.056,3.656,3.481,6.143,3.91c2.497,0.428,5.043-0.173,7.069-1.627c-1.448-2.058-3.659-3.482-6.146-3.911
						C18.307,95.024,15.758,95.627,13.732,97.08z"/>
				</g>
				<g>
					<path fill="#282D33" d="M37.737,121.313C37.736,121.313,37.736,121.313,37.737,121.313c-3.058,0-6.065-1.07-8.466-3.015
						l-1.118-0.905l0.502-1.348c1.521-4.077,4.908-7.195,9.061-8.344c4.139-1.143,8.686-0.177,12.029,2.527l1.119,0.904
						l-0.502,1.349c-1.519,4.077-4.907,7.197-9.063,8.347C40.134,121.149,38.936,121.313,37.737,121.313z M33.049,116.055
						c1.428,0.82,3.049,1.26,4.688,1.26c0,0,0,0,0,0c0.838,0,1.679-0.114,2.497-0.34c2.433-0.673,4.493-2.311,5.734-4.501
						c-2.161-1.239-4.77-1.583-7.188-0.919C36.35,112.227,34.291,113.864,33.049,116.055z"/>
				</g>
				<g>
					<path fill="#282D33" d="M56.773,112.769c-26.248-4.616-44.655-28.328-42.817-55.157c0.959-13.94,7.245-26.672,17.7-35.85
						l2.638,3.005c-9.657,8.477-15.463,20.238-16.35,33.119c-1.697,24.782,15.293,46.685,39.521,50.945L56.773,112.769z"/>
				</g>
			</g>
			<g>
				<g>
					<path fill="#282D33" d="M94.353,24.783c-3.769,0-7.288-1.493-9.908-4.206c-3.078-3.185-4.463-7.708-3.704-12.101l0.246-1.427
						l1.432-0.211c0.668-0.099,1.35-0.149,2.025-0.149c3.767,0,7.283,1.493,9.904,4.205c3.076,3.183,4.463,7.707,3.706,12.102
						l-0.245,1.429l-1.433,0.21C95.708,24.733,95.026,24.783,94.353,24.783z M84.535,10.688c-0.046,2.632,0.945,5.208,2.784,7.11
						c1.839,1.903,4.3,2.962,6.938,2.986c0.044-2.634-0.947-5.211-2.786-7.112C89.634,11.77,87.173,10.712,84.535,10.688z"/>
				</g>
				<g>
					<path fill="#282D33" d="M106.943,39.391l-1.093-0.966c-3.247-2.871-4.947-7.16-4.55-11.476
						c0.399-4.315,2.859-8.215,6.579-10.433l1.252-0.746l1.095,0.966c3.243,2.864,4.945,7.152,4.554,11.472
						c-0.403,4.324-2.864,8.225-6.584,10.437L106.943,39.391z M108.659,20.855c-1.91,1.612-3.144,3.937-3.378,6.462
						c-0.233,2.528,0.554,5.046,2.138,6.989c1.91-1.611,3.145-3.936,3.38-6.465C111.028,25.313,110.241,22.796,108.659,20.855z"/>
				</g>
				<g>
					<path fill="#282D33" d="M112.498,60.635l-0.583-1.331c-1.739-3.981-1.482-8.593,0.687-12.335
						c2.175-3.747,6.044-6.237,10.351-6.662l1.447-0.143l0.581,1.332c1.737,3.984,1.479,8.594-0.69,12.333
						c-2.173,3.747-6.041,6.238-10.347,6.663L112.498,60.635z M121.82,44.563c-2.404,0.646-4.492,2.225-5.761,4.411
						c-1.273,2.198-1.613,4.823-0.985,7.266c2.419-0.638,4.468-2.194,5.758-4.418C122.105,49.627,122.446,47.006,121.82,44.563z"/>
				</g>
				<g>
					<path fill="#282D33" d="M114.514,83.521c-1.544,0-3.067-0.263-4.527-0.781l-1.358-0.484l0.03-1.442
						c0.094-4.349,2.262-8.418,5.8-10.888c2.262-1.579,4.909-2.414,7.658-2.414c1.543,0,3.065,0.263,4.523,0.781l1.36,0.484
						l-0.031,1.443c-0.097,4.352-2.265,8.422-5.801,10.89C119.904,82.688,117.257,83.521,114.514,83.521z M112.811,79.369
						c2.444,0.446,5.008-0.101,7.07-1.538c2.074-1.447,3.481-3.683,3.935-6.168c-2.442-0.444-5.01,0.104-7.069,1.54
						C114.67,74.653,113.263,76.888,112.811,79.369z"/>
				</g>
				<g>
					<path fill="#282D33" d="M106.521,105.125c-3.543,0-6.896-1.387-9.442-3.905l-1.021-1.01l0.631-1.289
						c1.912-3.907,5.589-6.675,9.836-7.406c4.279-0.73,8.629,0.655,11.724,3.708l1.022,1.012l-0.632,1.291
						c-1.914,3.908-5.592,6.677-9.836,7.405C108.049,105.059,107.28,105.125,106.521,105.125z M101.057,99.364
						c2.025,1.455,4.572,2.052,7.068,1.626c2.485-0.427,4.694-1.852,6.145-3.909c-2.027-1.452-4.57-2.055-7.069-1.626
						C104.716,95.883,102.506,97.308,101.057,99.364z"/>
				</g>
				<g>
					<path fill="#282D33" d="M90.265,121.313c-1.2,0-2.398-0.163-3.564-0.484c-4.158-1.147-7.547-4.268-9.063-8.347l-0.5-1.346
						l1.116-0.903c3.341-2.708,7.891-3.671,12.032-2.529c4.154,1.148,7.54,4.268,9.059,8.345l0.502,1.348l-1.117,0.904
						C96.327,120.243,93.32,121.313,90.265,121.313z M82.03,112.475c1.238,2.19,3.299,3.828,5.733,4.5
						c2.419,0.667,5.027,0.319,7.188-0.919c-1.24-2.189-3.3-3.827-5.732-4.499C86.801,110.889,84.188,111.235,82.03,112.475z"/>
				</g>
				<g>
					<path fill="#282D33" d="M71.227,112.771l-0.692-3.938c24.23-4.264,41.22-26.165,39.521-50.946
						c-0.882-12.876-6.687-24.638-16.347-33.118l2.638-3.005c10.459,9.183,16.743,21.914,17.697,35.85
						C115.883,84.44,97.476,108.152,71.227,112.771z"/>
				</g>
			</g>
		</g>
	</g>
</g>
</svg>
